<svg width="223.413" height="254.257" fill="none" xmlns="http://www.w3.org/2000/svg"><path d="m111.01 110.9.4.23.14.6-2.99 7.1c-.18-.19-.33-.37-.48-.58.26-.5.4-1.06.63-1.58l2.3-5.77Zm11.92-24.2.63-.08c-.4 4.89-2.48 9.31-6.23 12.53-.2.16-.34.26-.58.37-1.38-.46-2.8-1.21-4.04-1.99l.15-.27c1.2.35 2.5 1.14 3.65 1.67.28-.16.51-.33.75-.53 3.07-2.63 5.35-7.74 5.67-11.7Z" fill="#010000"/><path d="m112.86 97.26-.09-.27L123 85.1l-.07 1.6c-.32 3.96-2.6 9.07-5.67 11.7-.24.2-.47.37-.75.53-1.15-.53-2.45-1.32-3.65-1.67Zm-1.85 13.64 2.31-5.63c.81-1.88 1.6-4.4 3.37-5.56l.41-.3c3.89 2.02 6.07 7.25 7.31 11.24.66 2.13.86 4.19.64 6.41-.55-.64-.93-1.66-1.35-2.41-1.09-1.92-2.16-3.57-2.95-5.65-.07 1.49-.01 3.94-1.01 5.12l-.16.2-.1.13c.5 1.93 2.03 3.62 2.24 5.69l-1.92-4.07c-.82 2.82-1.85 5.94-3.3 8.5-.17.31-.42.91-.71 1.11l-.05-.15c-.69-1.75-1.57-3.37-2.21-5.15-.15-.42-.01-.76.1-1.17.25-.91 1.16-2.98.97-3.87-.12-.53-.87-1.43-1.14-1.98-.53-1.07-1.01-2.2-1.38-3.33-.15.58-.29 1.15-.53 1.7l-.14-.6-.4-.23Z" fill="#0C0C0C"/><path d="m97.032 87.874 15.687 9.66.147-.27-.091-.265 10.23-11.894-.068 1.595.627-.077c.003-.134.002-.277.001-.426-.003-.52-.007-1.1.164-1.535.266-.673.201-1.609.144-2.429a19.16 19.16 0 0 1-.038-.652l4.125 1.135c2.155.421 4.698.357 6.557-.937a5.098 5.098 0 0 0 1.85-2.497 7.97 7.97 0 0 0 .317-1.606c.165-1.569.063-3.184.436-4.73.437-1.813 1.284-3.52 1.618-5.36l.033-.198c.094-.517.115-.855-.005-1.372l-.156-.745c.211-.87.301-1.76.636-2.599.321-.8.834-1.572 1.077-2.395.172-.585.163-1.215.304-1.809.455-1.916 1.131-3.68 1.266-5.674.1-1.48-.075-3.013-.291-4.476-.022-.146-.077-.357-.136-.586-.106-.406-.225-.864-.193-1.093.012-.083.299-.463.36-.56.468-.749.646-1.105.65-2.021-.761-.35-1.728-.201-2.555-.35-.445-.081-1.029-.093-1.468.108.439-.202 1.023-.19 1.468-.109.827.15 1.795.001 2.556.35l.181-.183c.562-.67 1.473-2.33 1.893-3.934.152-1.368-.127-2.981-.404-4.582-.168-.968-.335-1.933-.405-2.835.803-.623 1.712-1.216 2.434-1.929 1.583-1.564 2.729-4.027 2.982-6.23.26-2.27-.404-4.628-1.862-6.39-.973-1.175-1.997-1.71-3.452-2.106-.082-.022-.111-.022-.125-.037-.015-.017-.008-.055-.036-.174.991-3.217 1.114-6.278-.488-9.353-1.301-2.496-3.281-3.217-5.966-3.623-.732 1.626-2.196 2.215-3.544 2.291-1.883.107-4.066-.777-6.029-1.571-.649-.263-1.273-.516-1.855-.72-7.998-2.808-18.432-5.004-25.014 1.993a14.144 14.144 0 0 0-1.523 1.928c-.22.335-.75 1.452-1.052 1.64-.335.206-1.62.225-2.08.32-1.323.274-2.542.833-3.713 1.494-8.2 4.631-9.768 14.963-9.437 23.578.366 9.529 3.95 18.09 8.572 26.285.806 1.429 1.694 3.5 2.867 4.625.383.367.812.583 1.305.762.156.538.074 1.302.002 1.973-.025.234-.049.456-.06.654-.209 3.39-.514 6.87-1.173 10.205l-.133.007-.22.022-.15.011c-.849.08-1.614.633-2.128 1.294-.448.576-.806 1.268-.71 2.018.341 2.68 4.06 4.972 6.07 6.384Zm39.866-42.654-.195-.09.013-.83c.014-.214-.019-.26-.105-.38-.021-.03-.046-.065-.074-.108h-.001l.075.108c.086.12.119.166.105.38l-.014.83.196.09Zm2.333 15.596-.867.273h-.001l.868-.273Zm-1.106.35-.769.215.769-.214Z" clip-rule="evenodd" fill="#0C0C0C" fill-rule="evenodd"/><path d="M115.6 211.33h3.62c.3 0 .98-.08 1.22 0 .11.04.17.14.25.21l-.08.22-3.76.04c-.42-.01-1 .07-1.35-.16l.1-.31Z" fill="#010000"/><path d="M113.04 204.05c.87.62 1.87.45 2.91.46l4.39.03c-.31.24-.87.14-1.26.14l-3.86.01c.09.26.11.23.33.37-.76.02-1.62-.05-2.35.2-.22.35-.18.53-.18.94l-.12-.14c-.07-.31-.11-.44-.01-.75.14-.41.13-.83.15-1.26Zm16.74 15.55 4.19.01c.65.01 1.42-.08 2.05.02l-.17.16-3.79.02-.17.29c.4.26 1.32.15 1.82.15h5.03c.74 0 1.7-.13 2.39.07-1.32.21-2.76.11-4.1.12l-7.35-.03.25-.44-.15-.37Z" fill="#161515"/><path d="m133.99 195.55 3.83-.06c1.31.36 3 .16 4.37.15l-.05.19c-.45.2-.95.1-1.42.19-.8.14-1.82.02-2.64.01l-6.16-.05-.04-.15-.62-.04-.08-.15 2.65-.07.16-.02Z" fill="#010000"/><path d="m148.07 231.33 14.66.05c-.59.55-11.73-.16-12.06.19-.07.07-.08.17-.12.26.5.35 1.28.08 1.85.34l-4.11-.04c-.27.3-.3.72-.38 1.1-.03-.42-.08-.83.05-1.23.09-.25.11-.41.11-.67Z" fill="#161515"/><path d="M120.05 208.33c.59-.01 1.59-.16 2.14-.05.43.04.87-.01 1.23.23-.05.06-.26.26-.27.34h-8.62l-.07-.16-1.29-.04.14-.18c.54-.13 1.06-.04 1.62-.01.77.03 4.73.23 5.12-.13Z" fill="#010000"/><path d="m139.07 181.78 4.64.09c-.08.23-.09.46-.31.59l-3.29-.15c-.06-.1-.03-.25-.03-.37-.37-.01-.72.07-1.01-.16Z" fill="#161515"/><path d="M129.58 240.78c.19.28.34.57.49.87.11.22.08.09-.01.39-1.99.63-4.68.32-6.76.32l-9.54-.01c-2.35-.02-5.02.19-7.34-.13-.5-.07-.63-.1-.91-.5.06-.43.07-.53.39-.83.22-.23.79-.63 1.09-.74.19-.06.72.01.94.02l2.35.02 18.13-.02c.37.04.85.41 1.17.61Z" fill="#FBFAFC"/><path d="m147.64 228.21 9.33.13c1.17-.01 2.8-.23 3.92.01l.19.02c.83.08 1.72-.12 2.52.04l.06.37c.62-.01 1.17.12 1.61.6.24.25.31.47.33.82-.2.46-.36.8-.85.99-.58.23-1.39.17-2.02.19l-14.66-.05c-.21-.69-.3-1.37-.55-2.05-.09-.23-.04-.27.01-.5l-.09-.34.2-.23Z" fill="#FFF"/><path d="m147.64 228.21 9.33.13c1.17-.01 2.8-.23 3.92.01l.19.02c.83.08 1.72-.12 2.52.04l.06.37c-3.04.46-6.44.21-9.52.21-2.05 0-4.63.25-6.61-.21l-.09-.34.2-.23Z" fill="#010000"/><path d="m130.62 242.99.15.12c.04.73.2 2.14-.29 2.68-1.2.44-2.8.26-4.08.27h-7.09c-4.52-.01-9.19.22-13.71-.11l-.17-.09c-.26-.19-.26-.35-.31-.64-.11-.63-.17-1.39.2-1.94 1-.34 2.26-.23 3.32-.23l5.73.04 16.25-.1Z" fill="#FFF"/><path d="m113.15 229.99 9.42.04c1.12 0 2.48-.18 3.57-.03l.06.19.19.5c.16.42.24.7.63.95 1.85.44 4.17.23 6.09.24.51.01 1.26-.09 1.73.02l.12.05c.29.1.43.15.75.16-.08.15-.04.15-.2.21-.39.16-.93.08-1.34.08-1.22.01-2.64-.14-3.82.08l.19.02c1.67.16 3.39.1 5.07.11.65.01 1.52-.09 2.14.09.11.56.42 1.42.22 1.94l-1.01-.04.44.34c-.41.16-.83.19-1.26.24 1.12.09 2.41.04 3.41.6l.03.22c-.3.14-.57.18-.9.24l-.19.25c.17.41.26.4.67.56.34.13.71.19 1.07.25.19.42.1.99.08 1.45-.64.36-1.7.14-2.45.21-.41.33-6.35.14-7.37.14l-.22-.14c.01-.32.07-.48.14-.77l-.04-.89-.02.13c-.18.87-.71 1.51-1.45 1.98-.31.2-.54.26-.89.33l.53.1c.24.05.31.17.5.28l.2.08.07-.49c.54-.39 7.66-.18 8.8-.18l.07.07-1.58.03-.07.13-4.97.03c-.45 0-1.3-.11-1.72.01-.12.03-.19.15-.29.22l.15.65-.12.11c-.32-.2-.8-.57-1.17-.61l-18.13.02c-.49-.19-1.04-.22-1.57-.29l-.05-.16 4.27-.01c.47 0 1.58.13 1.89-.18 3.15-.18 6.38-.05 9.54-.04 1.19 0 2.62.15 3.79-.09.92-.19 1.47-1.08 1.93-1.83-.73-1.81-2.26-2.57-3.64-3.78-.95-.83-.89-1.8-.99-2.98l-11.21-.07c-.38-.13-.75-.16-1.14-.2l.05-.57Z" fill="#010000"/><path d="m136.96 234.6-5.89-.13c-.82-.02-2.07.09-2.83-.22-.97-.41-1.24-.99-1.65-1.89l3.76.12.19.02c1.67.16 3.39.1 5.07.11.65.01 14.23-.09 14.85.09.1.56.41 1.42.21 1.94l-13.71-.04Zm-4.74 4.27c-.52 0-1.16.08-1.64-.12.07-.25.11-.52.12-.78.03-1.16-.99-2.13-1.75-2.88l7.19.09c5.53 0 8.7.05 15.29.05.98 1.66 1.22 3.73-3.17 3.73-5.35 0-10.69-.01-16.04-.09Z" fill="#FFF"/><path d="m110.88 229.94 2.27.05-.05.57c.39.04.76.07 1.14.2l11.21.07c.1 1.18.04 2.15.99 2.98 1.38 1.21 2.91 1.97 3.64 3.78-.46.75-1.01 1.64-1.93 1.83-1.17.24-2.6.09-3.79.09-3.16-.01-6.39-.14-9.54.04-.68-.13-1.6-.02-2.31-.02l-5.33-.06c-.36-.19-.69-.64-.87-.99-1.14-2.22 2.78-4.23 3.84-5.66.38-.53.62-1.33.82-1.94l.04-.11c-.01-.28-.03-.18.05-.43l.06-.17-.24-.23Z" fill="#FFF"/><path d="m110.88 229.94 2.27.05-.05.57c.39.04.76.07 1.14.2l-3.23.01c-.01-.28-.03-.18.05-.43l.06-.17-.24-.23Z" fill="#161515"/><path d="m80.668 90.587 1.97-1.857 3.258-3.526c.595-.65 1.184-1.376 1.895-1.901l2.105-1.357-.11.206c-.558 1.05-1.173 2.5-1.319 3.68-.442 3.592.802 7.885 1.895 11.304.335 1.052.694 1.858 1.355 2.75 3.748 5.069 8.426 9.442 12.64 14.117l2.704 3.08c.299.35.655.93 1.021 1.175.156.21.298.388.483.575l-.481.955-16.459-17.926 5.057 15.053c4.204 11.797 9.077 23.133 15.128 34.107 2.475 4.489 5.075 9.233 8.612 12.983.894-1.109 1.511-2.473 2.109-3.754l2.747-6.699c2.668-7.452 3.822-15.375 4.082-23.261.101-3.044.167-6.077-.075-9.116-.28-3.527-1.01-7.023-1.402-10.541l-1.404-14.168-.906-6.337c-.247-1.443-.577-2.697-.629-4.184 2.606 1.347 4.586 3.568 6.349 5.885.85 1.117 1.509 2.42 2.259 3.607 3.046 4.821 5.723 9.849 9.014 14.518-1.146 1.771-2.946 3.337-4.4 4.869l-2.469 2.451 2.437 1.622c.929.566 8.109 4.593 8.232 4.854l-.315 3.278c.134-.226.248-.478.444-.655v.001c-.195.176-.31.429-.443.654l-4.674 25.375-1.651 7.488c-.505 2.112-1.234 4.346-1.422 6.512.603-.953.873-2.172 1.205-3.248 1.092-3.535 1.9-7.137 2.713-10.744.47-2.086.975-4.131 1.284-6.244l3.169-18.677v-.001c.379-1.25.49-2.786.616-4.084l-10.84-6.111c.634-.806 1.333-1.48 2.09-2.17l5.002-4.932-11.552-18.133 25.741 7.826c2.126 1.09 4.7 1.991 6.515 3.544 1.129.967 1.718 2.52 2.231 3.868 2.888 7.597 4.914 15.573 7.139 23.383l9.283 32.844 5.012 18.099 2.083 7.82c.152.565.311 1.132.47 1.701.872 3.119 1.764 6.305 1.684 9.541-.127 5.142-2.283 9.957-4.124 14.67l-4.356 10.519-5.252 11.016c.476 3.917 0 8.066-2.678 10.767l47.673.371-.016 6.191L0 254.257l.15-6.249 83.767-.035.103-3.92c-.48-.278-1.61-.309-2.188-.425l-2.913-5.201-24.784-6.222c-4.696-1.094-9.587-2.08-14.102-3.78-3.176-1.197-5.951-3.638-7.758-6.489-2.238-3.53-3.124-7.527-3.26-11.664-.13-3.981.336-8.012.816-11.956l1.903-14.71 4.291-31.546 4.246-27.031 1.552-8.004c.537-2.343 1.108-5.126 2.656-7.041.713-.881 1.744-1.585 2.647-2.261l6.35-4.293 22.393-10.023c1.885-.943 3.286-1.411 4.799-2.82Zm-1.622 1.561.587-.372-.25 25.835c1.934.576 3.817 1.477 5.706 2.205 1.56.6 3.276 1.072 4.755 1.83l.347.23-9.007 6.828.02.211c.071.471.453.912.716 1.296l1.983 2.868 4.573 6.795 17.025 25.168 6.451 9.731c.995 1.523 1.925 3.194 2.985 4.658-1.335-.644-28.282-40.914-31.393-45.591l-2.937-4.246.003-.017.403-.158-.403.158-.62-.598-.003-.247c1.05-1.034 2.444-1.852 3.646-2.704l5.81-4.044c-.493-.374-1.062-.425-1.642-.603l-3.026-1.029-6.124-2.426c-.143-.649-.184-1.382-.184-2.133 0-.53.02-1.068.04-1.592.02-.495.038-.977.038-1.426v-.04l.187-13.892c.026-.806.088-1.618.15-2.43.082-1.087.164-2.173.164-3.245v-1.02ZM68.36 170.242l.916-9.69c.106-1.789.161-3.586.161-5.385 0-5.999-.613-12.024-1.981-17.845-.59-2.511-1.443-4.96-2.153-7.438 1.754 3.208 2.797 6.781 3.599 10.333.738 3.274 1.3 6.503 1.523 9.853a65.37 65.37 0 0 1 .14 4.336c0 5.848-.724 11.617-1.603 17.436l-.826 5.226c-.364 2.071-.79 4.047-.816 6.158v.001c.081.49.118 1.033.118 1.618 0 2.787-.825 6.53-1.611 10.096-.695 3.155-1.36 6.172-1.396 8.266a2.223 2.223 0 0 0-.032.364c0 1.146 1.11 1.314 2.52 1.527.848.129 1.805.273 2.694.657-.485.269-.901.353-1.438.212l-4.617-1.296c.665-2.577.97-5.211 1.339-7.841l2.048-15.853a1.847 1.847 0 0 1-.034-.379c0-.497.133-1.131.253-1.705.071-.339.138-.656.17-.911l1.026-7.74Zm66.598-1.729c.139-.035.175-.051.213-.054.023-.001.046.004.095.013l.119.021c.331.055.185.043.453.06.863.054 1.301.56 1.956 1.078-.285.658-.492 1.149-.492 1.827 0 .097.004.199.013.305.331.291 1.184.244 1.819.209.168-.01.321-.018.445-.019l-.011 2.525-2.35-.084-.001.227.003.511c.002.175.004.35.004.526 0 .536-.016 1.073-.097 1.579l-.424.105-2.379-.132.209-2.676-2.418-.029-.068-2.701 2.52.198-.057-.592c-.046-.634-.08-1.058-.387-1.631l-.075-.135.082-.283a3.7 3.7 0 0 0 .735-.234l.093-.614Zm-.139 9.58.084-.002c.878-.025 1.708-.049 2.577.128.369.306.527.908.703 1.351l-2.239.111-3.36.069c.736-.553 1.403-1.258 2.235-1.657Zm4.254 3.688-6.498.017c-.337.006-.676.016-1.017.026-1.364.041-2.75.082-4.085-.138l-.098-.215c.791-.684 1.583-.667 2.559-.842 2.696-.483 5.633-.719 8.378-.569.863.048 1.597.451 2.419.635 1.048.234 2.091.201 3.109.605l.117.287-.24.285c-.084.232-.093.461-.312.59l-3.293-.144a.355.355 0 0 1-.035-.174c0-.036.002-.072.005-.107.001-.032.004-.063.004-.092-.08-.002-.159.001-.238.003h-.001c-.28.008-.548.016-.774-.167Zm1.039.538 3.293.143c-1.707 2.6-2.925 5.839-3.643 8.845l-5.502-.003c-.206-.006-.419-.006-.635-.007-.62-.003-1.265-.005-1.844-.129-.845-3.144-2.278-6.052-3.947-8.831l12.278-.018Zm-21.604 3.296.063-.026c.415-.065.699-.066 1.068.12.021.103.03.208.03.314 0 .419-.145.857-.281 1.267-.041.124-.081.245-.117.363l1.855.256c.051.234.081.514.081.799 0 .448-.074.908-.263 1.22-.402.116-.797.074-1.203.031l-.21-.022c-.207.1-.263.318-.263.585 0 .157.019.33.039.508.02.185.041.374.041.552 0 .243-.039.465-.171.628l-1.378.021-.812-.027c-.125-.186-.162-.524-.162-.896 0-.315.027-.654.05-.944.013-.174.026-.331.03-.454l-2.209-.091a37.175 37.175 0 0 1-.009-.171 11.12 11.12 0 0 1-.023-.63c0-.457.052-.924.273-1.206l1.471.142-.004-2.304 2.104-.035Zm35.117 1.271.744-.066c.454.017.929.343 1.189.702.14.195.208.413.208.642 0 .065-.006.131-.016.197-.081.488-.411.858-.794 1.14l-.1.071c.751.573 1.854.674 2.669 1.339 1.004.822 1.457 2.226 1.522 3.485.002.045.003.09.003.136 0 1.049-.589 2.435-1.308 3.177-.575.595-1.516.561-2.277.602l-4.095.017c-.328-.297-.668-.6-.935-.956a5.204 5.204 0 0 1-1.053-3.161c0-.365.036-.735.108-1.106.219-1.139 1.599-2.632 2.618-3.189.349-.191.707-.259 1.045-.485-.278-.548-.391-.829-.391-1.323 0-.112.006-.234.017-.374.249-.458.392-.59.846-.848Zm-21.135 4.801 6.898-.046c.509.026.81.107 1.163.475l-.174.234-1.014.076-5.629.09c-.19 0-.393.006-.601.012-.659.019-1.375.04-1.953-.119l-.122-.293c.419-.398.879-.377 1.432-.429Zm-14.862 1.112.457-.018c1.075.004 1.773.095 2.505.945.255.294.332.467.332.745 0 .095-.009.202-.023.33l4.961.656-1.731 4.01c-.54 1.12-1.142 2.156-1.491 3.357l-3.991.032-4.733.049-3.745-7.454 3.059-.433c.325-.049.923-.055 1.21-.176.065-.027.338-.398.389-.458.289-.341.84-1.173 1.218-1.354.388-.186 1.143-.18 1.583-.231Zm13.134.165c.978-.057 1.939-.032 2.904-.006h.001c.585.015 1.172.031 1.764.028l3.464-.102.267-.01c.66-.028 1.369-.058 1.922.292v.455a1.222 1.222 0 0 1-.505.097l-7.28.037c-.119 0-.274.005-.451.011-.674.022-1.651.055-2.011-.175-.111-.072-.193-.181-.291-.272l.216-.355Zm3.234 2.593c-.3-.039-.843-.035-1.454-.029-1.212.01-2.687.023-3.046-.303.106-.392.152-.654.493-.914l7.278-.129c.291-.002.59-.01.894-.018 1.049-.028 2.147-.058 3.129.178.149.212.269.431.5.562.137.078.261.144.391.236l-.022.227c-.839.284-2.104.222-3.209.168-.408-.02-.795-.039-1.13-.04l-3.824.062Zm-2.074.424 6.159.058c.242.002.499.013.763.025.639.029 1.314.059 1.883-.04l1.782.12a4.904 4.904 0 0 1 1.607 1.767l-.162.282c-.913.358-2.269.317-3.452.281a26.735 26.735 0 0 0-1.096-.019l-8.339-.086c-.226-.01-.463-.013-.704-.016-.848-.012-1.756-.025-2.506-.301l-.11-.282c.078-.236.161-.391.336-.57.228-.233.977-1.104 1.237-1.19.405-.133 1.184-.092 1.845-.057.289.016.555.03.757.028Zm20.734 2.901c.182-.008.433-.026.726-.046 1.318-.094 3.493-.248 4.115.179l.044.592c-.347.311-.811.308-1.277.305a8.209 8.209 0 0 0-.385.004l-5.184.029-.104-.197c.682-.707 1.098-.776 2.065-.866Zm-22.874 20.723c-.012-.056-.024-.101-.034-.139-.016-.058-.028-.101-.028-.146 0-.06.021-.123.084-.229.911-1.547 1.136-3.82 1.417-5.578.75-4.694 1.129-9.359 1.473-14.097l6.135-.104c.145 2.983 1.387 18.229 2.782 19.828l.55.254-.03.177c-1.241.158-2.562.123-3.87.088h-.001c-.754-.02-1.504-.04-2.233-.023-.432-.066-.931-.049-1.41-.032-.221.008-.436.016-.639.015l-4.196-.014Zm21.077-19.2 5.007.004c.129.001.268-.001.414-.002.773-.009 1.736-.02 2.329.332l.016.151c.011.099.021.178.021.253 0 .134-.03.253-.128.442l-.509.07-5.618-.053c-.112-.003-.239-.003-.375-.003-.605-.002-1.39-.003-1.815-.25-.108-.063-.149-.081-.169-.112-.022-.036-.016-.091-.054-.254.316-.392.423-.411.881-.578Zm-.862 1.724c1.22-.086 2.47-.066 3.71-.045.498.008.995.016 1.487.017.335.001.684-.007 1.042-.016 1.16-.028 2.399-.057 3.451.219.83.218 1.016.808 1.438 1.484l-2.175.147-8.224-.018c-.2-.001-.445.01-.709.021-.697.03-1.527.066-2.008-.087-.101-.032-.156-.144-.235-.216.033-.299.064-.479.241-.733.424-.612 1.31-.699 1.982-.773Zm-36.957 1.926.066-.399c1.007-.448 2.616-.387 3.969-.336.41.015.796.03 1.135.029.365 0 .752-.013 1.15-.026 1.198-.04 2.489-.083 3.548.194.102.173.134.278.134.394 0 .069-.011.142-.025.236-.007.049-.016.103-.024.165-.36.274-1.413.252-2.147.237-.199-.004-.374-.008-.506-.005l-4.386-.027c-.188-.002-.376.002-.561.006-.837.018-1.637.035-2.353-.468Zm36.796 14.14 1.99-13.417 5.012.006 1.37 9.027c.279 1.439.525 3.018 1.108 4.363.339.195.659.238 1.037.3.284.115.184.018.309.284l-.357.189c-2.016-.126-4.044-.054-6.066.017-.602.021-1.204.043-1.805.059-.194.005-.446.023-.728.043-.907.066-2.119.153-2.672-.101-.125-.058-.201-.185-.302-.278l.126-.27.978-.222Zm-34.284-13.13c.608.009 1.251-.002 1.911-.013 1.832-.031 3.788-.065 5.431.318.112.161.147.278.147.399 0 .084-.017.169-.038.273-.012.062-.025.13-.037.208-.085.072-.149.183-.255.216-.185.057-.534.043-.815.032h-.001c-.103-.004-.198-.008-.272-.007l-3.435-.154c-.608-.01-1.23.012-1.855.035-.989.036-1.984.073-2.937-.02-.192-.019-.159-.035-.373-.152l.001-.071-.001-.103v-.085c0-.245.016-.412.183-.681.567-.192 1.22-.191 1.842-.191h.001c.171 0 .339 0 .503-.004Zm-46.347 1.467c.02-.006.037-.013.053-.019.106-.038.167-.06.314-.057.72.013 1.659.36 2.38.51l12.54 3.004c.796.231 2.41.491 2.923 1.085-1.28.5-16.082-3.708-18.21-4.523Zm50.849 1.803c-.243-.003-.681-.002-1.234-.001-2.332.007-6.712.019-7.194-.318-.024-.155-.048-.214-.048-.256a.11.11 0 0 1 .002-.018c.008-.04.044-.075.134-.19.433-.551 1.298-.525 1.94-.568 2.13-.144 4.273-.092 6.406-.04l.243.006c.241.005.499.002.762-.002.606-.009 1.244-.018 1.787.087.348.068.731.254.982.506l.094.122-.119.282a8.737 8.737 0 0 1-1.614.344c-.384-.082-.988-.034-1.518.007-.229.018-.445.035-.623.039Zm3.105.523.52.035c.709.099 1.547.791 1.958 1.344l.001.001c.159.213.222.299.222.46 0 .062-.009.134-.026.229-.53.218-1.093.218-1.658.218h-.001l-.335.001-3.203.021c-.929.002-1.877.021-2.833.039-2.782.056-5.635.112-8.306-.252l.858-1.09c.238-.257.708-.728 1.029-.853.585-.227 1.603-.196 2.429-.171.269.009.517.016.723.014l8.622.004Zm-31.87 3.045c.68-.224 2.09.087 3.14.318.314.069.596.131.816.169 3.035.531 6.127.947 9.124 1.657-2.506 1.333-4.076 3.417-5.457 5.833-2.255 3.943-3.39 8.999-3.39 13.703 0 1.016.053 2.016.159 2.985.188 1.716.623 3.352 1.064 5.015l-.181.312-11.789-1.523c-1.308-2.619-1.821-5.652-1.821-8.685 0-2.279.29-4.557.751-6.66 1.011-4.607 3.463-10.48 7.584-13.124Zm19.597 18.039c-.039-.111-.058-.142-.058-.171v-.001c0-.033.025-.064.072-.2l1.34-.516c.49-1.076.741-2.411 1.011-3.564 1.038-4.422 1.45-8.966 1.73-13.491l6.36-.036c.008 3.679.616 7.369 1.288 10.978.413 2.209.73 4.837 2.086 6.67l.097-.108c.28-2.41 2.483-3.935 3.705-5.874.656-1.043.941-2.012 1.169-3.214l7.349.027c.336-.001.678.004 1.023.009h.004c1.03.016 2.086.031 3.076-.122l.579.054c.241.408.186.951.288 1.413.115.526.351 1.078.592 1.557.435.863 1.328 1.996 1.999 2.704.586.618 1.213 1.06 1.74 1.751.689 1.17.963 2.007.963 2.605 0 1.498-1.72 1.498-2.941 1.498h-6.859c-.934-.001-1.914.038-2.912.077-2.571.1-5.259.205-7.566-.34-.387-.256-.469-.534-.625-.949l-.189-.506-.067-.189c-.716-.101-1.556-.056-2.364-.013-.415.022-.821.044-1.198.045l-9.428-.041-2.264-.053Zm36.763-1.729c-.773-.421-1.434-1.17-2.042-1.802-.369-.382-.455-.471-.507-1.01.624-1.735 2.856-2.431 3.632-4.055.274-.572.298-1.277.357-1.9l11.026.001c.072 1.136.15 2.113 1.034 2.92 1.194 1.089 3.631 1.939 3.691 3.86a.508.508 0 0 1 .001.039c0 .562-.358 1.211-.681 1.643-.639.296-1.349.321-2.057.347a9.195 9.195 0 0 0-1.205.095c-.774-.162-1.79-.107-2.73-.056h-.001c-.423.023-.831.045-1.194.046l-9.324-.128Z" clip-rule="evenodd" fill="#0C0C0C" fill-rule="evenodd"/><path d="M91.22 236.07c.17-.06.19-.08.39-.1.43-.04.97.22 1.26.52.32.34.41.74.37 1.2-.05.49-.35.76-.71 1.06l-.17.05c-.44.09-.82.02-1.17-.28-.4-.34-.52-.84-.61-1.32.11-.55.25-.75.64-1.13Zm-4.33-.29c.15-.07.16-.08.35-.12.41-.08 1 .12 1.3.41.34.31.48.74.44 1.2-.04.49-.27.82-.62 1.15l-.2.07c-.38.13-.89.1-1.22-.13-.31-.2-.58-.59-.64-.95-.1-.62.23-1.15.59-1.63Z" fill="#010000"/></svg>